<svg id="Layer_1" data-name="Layer 1" xmlns="http://www.w3.org/2000/svg" xmlns:xlink="http://www.w3.org/1999/xlink" viewBox="0 0 612 792"><defs><style>.cls-1{fill:none;}.cls-2{clip-path:url(#clip-path);}.cls-3{fill:#1eb685;}</style><clipPath id="clip-path"><rect class="cls-1" y="297.05" width="543.53" height="494.95" rx="9"/></clipPath></defs><g class="cls-2"><path class="cls-3" d="M75.82,476.17h0a25,25,0,0,0-35.36,0L-137.69,654.33l35.35,35.35L75.82,511.53A25,25,0,0,0,75.82,476.17Z"/><path class="cls-3" d="M339.53,672.12a25,25,0,1,0-35.35-35.35l-58.35,58.35a25,25,0,0,1-35.21-.15h0a25,25,0,0,1,0-35.35l187.3-187.3a25,25,0,0,0,0-35.36h0a25,25,0,0,0-35.35,0L243.76,555.77a25,25,0,0,1-35.27-35.44l61.67-61.66a25,25,0,1,0-35.35-35.36L-66.95,725.07l35.35,35.35h0L3.76,795.77l0,0,35.36,35.35h0L74.45,866.5h0l35.36,35.35Z"/><path class="cls-3" d="M507.1,610.41a25,25,0,0,0-35.35,0L145.07,937.09l35.35,35.36L507.1,645.77A25,25,0,0,0,507.1,610.41Z"/><path class="cls-3" d="M433.32,401.63a25,25,0,0,0,35.35,0l31.4-31.39a25,25,0,0,0,0-35.36h0a25,25,0,0,0-35.36,0l-31.39,31.4a25,25,0,0,0,0,35.35Z"/><rect class="cls-3" x="104.34" y="390" width="65.08" height="50" rx="25" transform="translate(-253.36 218.34) rotate(-45)"/></g></svg>